<?xml version="1.0" standalone="no"?>
<!DOCTYPE svg PUBLIC "-//W3C//DTD SVG 20010904//EN"
 "http://www.w3.org/TR/2001/REC-SVG-20010904/DTD/svg10.dtd">
<svg version="1.0" xmlns="http://www.w3.org/2000/svg"
 width="200.000000pt" height="200.000000pt" viewBox="0 0 200.000000 200.000000"
 preserveAspectRatio="xMidYMid meet">
<metadata>
Created by potrace 1.16, written by Peter Selinger 2001-2019
</metadata>
<g transform="translate(0.000000,200.000000) scale(0.100000,-0.100000)"
fill="#000000" stroke="none">
<path d="M395 1234 c-12 -5 -14 -194 -2 -194 4 0 12 0 17 0 6 0 10 16 10 36 0
31 3 35 20 29 11 -3 29 -4 39 0 25 7 45 58 37 90 -8 33 -50 54 -75 38 -10 -7
-22 -8 -27 -4 -5 5 -13 7 -19 5z"/>
<path d="M1262 1223 c-48 -38 -21 -123 40 -123 54 0 88 69 56 113 -20 26 -70
32 -96 10z"/>
<path d="M1650 1220 c-24 -24 -26 -67 -4 -98 17 -24 53 -29 72 -10 9 9 12 8
12 -7 0 -40 -29 -58 -67 -44 -17 6 -23 5 -23 -6 0 -17 45 -24 83 -12 31 10 41
40 40 112 -1 77 -2 78 -23 72 -11 -3 -23 -1 -26 4 -9 16 -43 10 -64 -11z"/>
<path d="M649 1020 c-1 -5 -2 -20 -3 -32 -1 -20 -6 -23 -33 -20 -60 6 -95 -63
-58 -115 13 -18 24 -21 70 -20 l55 1 0 98 c0 80 -3 98 -15 98 -8 0 -16 -4 -16
-10z"/>
<path d="M250 952 c-48 -39 -17 -122 45 -122 41 0 63 18 71 57 5 26 1 37 -19
57 -31 31 -66 33 -97 8z"/>
<path d="M735 958 c-27 -16 -35 -28 -35 -60 0 -37 32 -68 70 -68 56 0 91 68
58 113 -17 22 -68 30 -93 15z"/>
</g>
</svg>
