<svg id="svg" version="1.1" xmlns="http://www.w3.org/2000/svg" xmlns:xlink="http://www.w3.org/1999/xlink" width="400" height="400" viewBox="0, 0, 400,400"><g id="svgg"><path id="path0" d="M155.000 197.855 C 145.344 199.328,138.644 205.435,137.631 213.686 C 135.411 231.764,159.067 245.721,166.772 230.880 C 167.771 228.956,168.470 226.461,167.691 227.600 C 163.478 233.759,158.462 235.688,153.059 233.227 C 140.286 227.408,148.157 208.280,161.301 213.197 C 163.936 214.183,165.503 215.782,169.143 221.200 C 178.326 234.866,186.773 240.800,197.042 240.800 C 205.657 240.800,210.815 237.310,218.605 226.212 C 228.218 212.515,231.831 210.136,238.952 212.812 C 250.363 217.101,247.356 233.978,235.179 233.996 C 231.043 234.002,228.504 232.465,224.898 227.774 L 223.995 226.600 224.619 228.200 C 228.202 237.395,236.169 239.717,245.082 234.162 C 265.028 221.730,252.694 193.109,229.520 198.052 C 223.231 199.393,215.600 206.508,215.600 211.030 C 215.600 212.270,214.791 211.856,213.606 210.009 C 206.829 199.448,191.050 196.924,183.069 205.124 L 181.539 206.697 183.748 205.951 C 198.094 201.107,210.151 209.342,206.468 221.467 C 202.384 234.914,188.570 230.117,177.687 211.474 C 172.184 202.048,163.133 196.615,155.000 197.855 M171.285 242.834 C 164.269 243.728,160.427 247.474,160.409 253.438 C 160.379 262.984,172.867 268.272,183.094 263.046 C 184.990 262.077,188.473 258.842,187.096 259.329 C 182.687 260.889,174.776 260.700,172.339 258.977 C 167.705 255.699,167.929 251.712,172.821 250.394 C 175.757 249.604,181.767 252.089,196.691 260.264 C 212.615 268.988,232.214 264.751,232.142 252.600 C 232.083 242.712,218.080 238.756,206.907 245.470 C 201.949 248.449,200.910 250.231,204.929 248.860 C 210.880 246.831,219.761 247.250,221.786 249.656 C 224.967 253.437,220.411 257.353,212.800 257.381 C 208.638 257.396,205.363 256.261,198.400 252.392 C 184.421 244.622,177.207 242.080,171.285 242.834 M57.298 294.100 C 57.388 294.375,58.109 294.655,58.900 294.722 C 61.301 294.926,61.318 295.003,61.603 306.927 C 61.891 318.942,61.992 319.460,64.612 322.361 C 68.861 327.063,79.193 327.125,83.723 322.475 C 86.711 319.408,86.957 318.282,87.191 306.561 C 87.418 295.211,87.504 294.800,89.649 294.800 C 90.405 294.800,90.800 294.594,90.800 294.200 C 90.800 293.694,89.885 293.600,84.967 293.600 C 79.120 293.600,77.134 294.218,80.975 294.842 C 83.169 295.199,83.187 295.293,83.194 306.027 C 83.203 320.445,81.640 323.617,74.772 323.121 C 68.523 322.669,67.442 320.306,67.270 306.729 C 67.128 295.463,67.217 294.928,69.270 294.725 C 69.967 294.656,70.612 294.375,70.703 294.100 C 70.830 293.713,69.314 293.600,64.000 293.600 C 58.686 293.600,57.170 293.713,57.298 294.100 M96.725 311.172 C 96.536 323.697,96.431 324.400,94.751 324.400 C 94.338 324.400,94.000 324.580,94.000 324.800 C 94.000 325.041,95.667 325.200,98.200 325.200 C 100.733 325.200,102.400 325.041,102.400 324.800 C 102.400 324.580,101.984 324.400,101.476 324.400 C 99.138 324.400,99.052 324.078,98.811 314.344 C 98.690 309.425,98.592 305.373,98.595 305.339 C 98.598 305.306,99.950 306.810,101.600 308.682 C 107.060 314.877,117.904 325.806,118.255 325.467 C 118.445 325.284,118.690 319.712,118.800 313.085 L 119.000 301.035 119.924 300.818 C 122.036 300.320,120.612 299.797,117.001 299.745 C 114.000 299.702,113.200 299.807,113.200 300.245 C 113.200 300.594,113.641 300.800,114.386 300.800 C 116.160 300.800,116.279 301.383,116.502 311.186 C 116.702 319.940,116.688 320.149,115.975 319.269 C 114.300 317.200,97.451 299.200,97.190 299.200 C 97.033 299.200,96.824 304.587,96.725 311.172 M216.000 299.644 C 209.866 301.489,210.115 307.524,216.567 313.382 C 221.689 318.032,222.410 320.070,219.840 322.640 C 217.069 325.411,212.000 323.828,212.000 320.193 C 212.000 317.891,210.999 319.486,210.880 321.978 L 210.759 324.492 209.513 324.243 C 207.642 323.868,205.952 322.386,202.408 318.010 C 198.661 313.383,198.860 314.052,200.563 311.821 C 203.913 307.432,203.438 302.744,199.432 300.665 C 197.467 299.645,186.000 299.291,186.000 300.250 C 186.000 300.568,186.416 300.800,186.986 300.800 C 188.657 300.800,188.803 301.732,188.753 312.074 C 188.699 323.159,188.582 324.145,187.297 324.328 C 184.813 324.682,186.908 325.200,190.824 325.200 C 193.671 325.200,195.159 325.057,195.000 324.800 C 194.864 324.580,194.335 324.400,193.825 324.400 C 192.379 324.400,192.095 323.694,191.789 319.341 C 191.445 314.459,191.392 314.567,194.061 314.734 L 196.200 314.869 198.722 318.374 C 203.148 324.528,203.769 324.975,208.118 325.138 C 210.143 325.215,213.330 325.363,215.200 325.468 C 219.485 325.708,221.621 324.772,223.079 322.016 C 225.176 318.050,224.192 315.339,218.892 310.482 C 213.881 305.890,213.165 304.100,215.473 301.932 C 217.672 299.865,222.400 301.292,222.400 304.022 C 222.400 304.450,222.555 304.800,222.744 304.800 C 223.178 304.800,223.664 300.304,223.273 299.913 C 222.763 299.403,217.452 299.207,216.000 299.644 M282.219 299.883 C 282.065 300.277,280.132 305.550,277.923 311.600 C 273.854 322.745,273.002 324.400,271.330 324.400 C 270.819 324.400,270.400 324.580,270.400 324.800 C 270.400 325.040,272.000 325.200,274.400 325.200 C 277.967 325.200,279.871 324.665,277.500 324.328 C 276.208 324.144,276.213 323.090,277.526 319.200 L 278.673 315.800 282.418 315.800 L 286.162 315.800 287.678 319.797 C 288.511 321.995,289.092 324.110,288.969 324.497 C 288.768 325.132,289.094 325.200,292.373 325.200 C 294.524 325.200,296.000 325.037,296.000 324.800 C 296.000 324.580,295.664 324.400,295.254 324.400 C 293.090 324.400,292.285 322.768,284.913 303.433 C 283.387 299.432,282.732 298.569,282.219 299.883 M126.800 300.263 C 126.800 300.558,127.154 300.800,127.586 300.800 C 129.036 300.800,129.201 302.003,129.160 312.274 C 129.116 323.179,128.999 324.138,127.684 324.328 C 125.226 324.683,127.309 325.200,131.200 325.200 C 133.867 325.200,135.600 325.042,135.600 324.800 C 135.600 324.580,135.163 324.400,134.629 324.400 C 132.467 324.400,132.400 324.047,132.400 312.604 C 132.400 301.073,132.434 300.800,133.876 300.800 C 134.480 300.800,134.803 300.609,134.703 300.310 C 134.458 299.574,126.800 299.529,126.800 300.263 M137.200 300.256 C 137.200 300.570,137.624 300.800,138.204 300.800 C 139.795 300.800,140.265 301.682,145.166 313.872 C 148.164 321.328,150.017 325.438,150.415 325.512 C 151.104 325.640,150.956 325.954,156.870 311.800 C 161.052 301.793,161.528 300.924,162.942 300.722 C 163.414 300.655,163.756 300.422,163.702 300.204 C 163.535 299.532,156.400 299.566,156.400 300.238 C 156.400 300.571,156.808 300.800,157.400 300.800 C 157.950 300.800,158.400 300.983,158.400 301.206 C 158.400 302.557,151.414 320.270,151.089 319.744 C 150.782 319.246,144.476 302.346,144.323 301.609 C 144.249 301.254,144.559 300.964,145.100 300.882 C 147.893 300.456,145.731 299.743,141.600 299.728 C 138.150 299.716,137.200 299.830,137.200 300.256 M165.600 300.300 C 165.600 300.575,166.014 300.800,166.520 300.800 C 168.340 300.800,168.400 301.161,168.400 312.054 C 168.400 322.771,168.190 324.400,166.810 324.400 C 166.364 324.400,166.000 324.580,166.000 324.800 C 166.000 325.432,179.983 325.334,180.183 324.700 C 180.735 322.948,180.827 320.324,180.331 320.488 C 180.039 320.584,179.743 321.052,179.673 321.528 C 179.466 322.930,178.076 323.600,175.373 323.600 C 171.781 323.600,171.600 323.293,171.600 317.214 L 171.600 312.290 174.204 312.499 C 176.985 312.723,178.000 313.244,178.000 314.449 C 178.000 315.665,178.678 315.308,178.950 313.950 C 179.507 311.165,179.054 309.019,178.200 310.400 C 178.064 310.620,176.523 310.800,174.776 310.800 L 171.600 310.800 171.600 306.200 L 171.600 301.600 174.226 301.600 C 177.175 301.600,178.400 302.067,178.400 303.190 C 178.400 305.590,179.415 304.389,179.744 301.600 L 179.957 299.800 172.778 299.800 C 167.302 299.800,165.600 299.919,165.600 300.300 M230.000 300.263 C 230.000 300.558,230.354 300.800,230.786 300.800 C 232.236 300.800,232.401 302.003,232.360 312.274 C 232.316 323.179,232.199 324.138,230.884 324.328 C 228.426 324.683,230.509 325.200,234.400 325.200 C 237.067 325.200,238.800 325.042,238.800 324.800 C 238.800 324.580,238.395 324.397,237.900 324.394 C 235.798 324.380,235.809 324.438,235.681 312.778 C 235.557 301.428,235.641 300.800,237.282 300.800 C 237.724 300.800,237.995 300.586,237.903 300.310 C 237.658 299.574,230.000 299.529,230.000 300.263 M244.141 300.095 C 243.940 300.421,244.460 300.667,245.800 300.881 C 247.783 301.197,247.688 323.322,245.700 324.195 C 243.999 324.941,244.815 325.115,251.300 325.392 C 260.022 325.763,262.974 325.041,266.166 321.754 C 272.152 315.590,270.550 304.400,263.230 301.251 C 259.942 299.836,244.865 298.923,244.141 300.095 M297.600 300.293 C 297.600 300.572,298.014 300.800,298.520 300.800 C 300.340 300.800,300.400 301.161,300.400 312.054 C 300.400 322.771,300.190 324.400,298.810 324.400 C 298.364 324.400,298.000 324.561,298.000 324.757 C 298.000 325.642,311.665 325.706,314.441 324.834 C 325.052 321.501,326.446 305.420,316.493 301.154 C 313.062 299.684,297.600 298.979,297.600 300.293 M327.767 299.967 C 327.331 300.403,327.690 300.800,328.520 300.800 C 330.348 300.800,330.400 301.129,330.400 312.600 C 330.400 323.847,330.321 324.400,328.720 324.400 C 328.324 324.400,328.000 324.580,328.000 324.800 C 328.000 325.284,341.854 325.360,342.152 324.877 C 342.262 324.699,342.476 323.619,342.628 322.477 C 342.934 320.168,342.352 319.615,341.671 321.569 C 341.108 323.184,339.997 323.658,337.101 323.519 C 333.856 323.363,333.614 322.904,333.606 316.900 L 333.600 312.400 335.500 312.447 C 338.655 312.526,339.739 312.894,339.993 313.971 C 340.458 315.939,341.124 315.292,341.279 312.721 C 341.457 309.784,341.416 309.673,340.387 310.315 C 339.958 310.583,338.266 310.800,336.605 310.800 L 333.600 310.800 333.600 306.200 L 333.600 301.600 336.400 301.600 C 339.308 301.600,340.800 302.346,340.800 303.800 C 340.800 304.130,340.980 304.400,341.200 304.400 C 341.420 304.400,341.600 303.882,341.600 303.250 C 341.600 302.618,341.703 301.582,341.830 300.950 L 342.060 299.800 334.996 299.800 C 331.112 299.800,327.858 299.875,327.767 299.967 M196.841 302.108 C 202.628 305.974,198.983 315.227,192.626 312.810 L 191.600 312.420 191.600 307.077 C 191.600 304.138,191.720 301.613,191.867 301.467 C 192.493 300.841,195.530 301.232,196.841 302.108 M258.853 302.210 C 267.722 305.241,269.117 318.694,261.000 322.903 C 258.867 324.009,253.961 324.329,251.959 323.492 L 250.524 322.892 250.241 315.844 C 249.936 308.241,250.248 301.995,250.958 301.477 C 251.607 301.003,256.708 301.477,258.853 302.210 M313.002 302.555 C 322.412 306.839,321.961 321.306,312.346 323.613 C 309.332 324.336,305.225 323.918,304.315 322.795 C 303.232 321.457,303.218 301.771,304.300 301.453 C 305.837 301.000,311.033 301.658,313.002 302.555 M284.043 309.819 L 285.514 314.000 282.557 314.000 C 280.931 314.000,279.600 313.872,279.600 313.715 C 279.600 312.944,282.158 305.225,282.350 305.417 C 282.472 305.539,283.234 307.520,284.043 309.819 M177.300 334.899 C 177.391 335.173,178.116 335.503,178.912 335.632 C 181.652 336.077,181.296 335.435,188.401 352.800 C 195.170 369.345,194.673 368.845,197.622 362.080 C 208.721 336.623,209.162 335.755,211.118 335.522 C 211.679 335.455,212.212 335.175,212.302 334.900 C 212.428 334.516,211.194 334.400,207.000 334.400 C 201.610 334.400,199.553 335.057,203.232 335.603 C 205.018 335.868,205.133 335.394,200.296 347.691 L 196.248 357.983 192.340 347.691 C 188.014 336.298,187.876 335.715,189.469 335.527 C 190.057 335.457,190.612 335.175,190.702 334.900 C 190.830 334.513,189.314 334.400,184.000 334.400 C 178.695 334.400,177.171 334.513,177.300 334.899 M236.163 340.412 C 224.130 342.798,222.140 359.891,233.295 365.043 C 236.422 366.487,244.554 366.764,247.300 365.520 L 248.800 364.841 248.800 359.786 L 248.800 354.731 250.000 354.278 C 252.102 353.484,251.312 353.200,247.000 353.200 C 242.560 353.200,242.014 353.427,244.109 354.400 L 245.400 355.000 245.513 359.279 C 245.648 364.363,245.457 364.597,241.200 364.558 C 227.617 364.435,224.511 343.443,237.830 341.779 C 242.035 341.254,246.601 343.006,247.400 345.451 C 248.121 347.656,248.595 347.125,248.715 343.981 L 248.831 340.962 244.915 340.477 C 240.587 339.941,238.612 339.927,236.163 340.412 M263.980 340.518 C 252.163 343.877,251.519 362.480,263.103 365.847 C 272.775 368.659,281.010 362.649,280.980 352.800 C 280.952 343.705,272.995 337.956,263.980 340.518 M121.600 341.001 C 121.600 341.371,121.977 341.600,122.586 341.600 C 124.240 341.600,124.400 342.563,124.396 352.474 C 124.390 363.556,124.256 364.720,122.947 365.049 C 120.788 365.591,122.356 365.908,128.500 366.174 C 132.846 366.362,135.657 366.307,136.983 366.007 C 149.512 363.177,150.952 345.602,139.000 341.392 C 136.186 340.401,121.600 340.073,121.600 341.001 M151.729 340.987 C 151.804 341.214,152.211 341.464,152.633 341.543 C 154.377 341.868,154.400 342.016,154.400 353.075 C 154.400 363.996,154.240 365.200,152.786 365.200 C 152.354 365.200,152.000 365.380,152.000 365.600 C 152.000 366.069,165.854 366.167,166.131 365.700 C 166.683 364.769,166.859 361.113,166.344 361.283 C 166.045 361.382,165.743 361.852,165.673 362.328 C 165.465 363.737,164.077 364.400,161.334 364.400 C 157.842 364.400,157.600 363.979,157.600 357.911 L 157.600 353.200 159.700 353.240 C 162.884 353.300,163.779 353.655,163.927 354.916 C 164.215 357.386,165.185 355.538,165.195 352.500 C 165.200 350.896,164.751 350.309,164.200 351.200 C 164.064 351.420,162.523 351.600,160.776 351.600 L 157.600 351.600 157.600 347.000 L 157.600 342.400 160.226 342.400 C 163.175 342.400,164.400 342.867,164.400 343.990 C 164.400 346.390,165.415 345.189,165.744 342.400 L 165.957 340.600 158.774 340.587 C 154.010 340.579,151.638 340.714,151.729 340.987 M213.200 341.043 C 213.200 341.350,213.524 341.600,213.920 341.600 C 215.514 341.600,215.600 342.178,215.600 352.854 C 215.600 363.571,215.390 365.200,214.010 365.200 C 213.564 365.200,213.200 365.380,213.200 365.600 C 213.200 365.842,214.933 366.000,217.600 366.000 C 220.267 366.000,222.000 365.842,222.000 365.600 C 222.000 365.380,221.595 365.197,221.100 365.194 C 218.981 365.179,219.000 365.285,219.000 353.321 L 219.000 342.212 220.100 341.684 C 222.006 340.770,221.321 340.487,217.200 340.487 C 214.050 340.487,213.200 340.605,213.200 341.043 M272.325 343.075 C 279.799 347.696,279.084 361.719,271.240 364.345 C 262.600 367.238,255.016 355.895,259.405 346.646 C 261.632 341.953,267.768 340.258,272.325 343.075 M136.717 343.209 C 144.992 346.860,146.244 359.259,138.757 363.405 C 135.998 364.933,129.933 365.188,128.442 363.838 C 127.414 362.907,127.094 342.698,128.100 342.238 C 129.167 341.750,134.865 342.391,136.717 343.209 " stroke="none" fill="#161f5e" fill-rule="evenodd"></path><path id="path1" d="M192.877 80.438 C 178.983 82.194,169.177 93.232,169.682 106.548 L 169.800 109.672 171.078 107.855 C 173.718 104.103,177.438 103.350,186.022 104.830 C 198.671 107.010,206.139 105.277,213.252 98.512 L 215.503 96.370 216.333 97.776 C 221.008 105.700,218.077 118.198,210.230 123.792 C 201.449 130.052,193.614 130.034,178.657 123.718 C 164.450 117.720,157.161 117.177,148.134 121.448 C 129.891 130.079,129.127 157.657,146.841 168.110 C 159.934 175.837,177.750 171.089,184.344 158.116 C 185.455 155.930,185.456 155.933,183.700 156.673 C 179.572 158.413,175.988 157.111,167.800 150.896 C 157.759 143.276,151.704 141.687,142.081 144.149 C 138.522 145.059,138.526 145.063,139.124 141.487 C 143.185 117.200,177.545 118.261,187.986 142.997 C 190.230 148.315,188.788 175.574,185.418 191.526 C 185.078 193.136,184.800 194.531,184.800 194.626 C 184.800 194.722,189.570 194.800,195.400 194.800 C 201.230 194.800,206.000 194.724,206.000 194.631 C 206.000 194.538,205.643 192.333,205.206 189.731 C 201.467 167.435,202.112 145.242,206.711 138.012 C 217.916 120.395,241.534 118.598,251.190 134.628 C 253.086 137.776,254.824 144.814,253.700 144.795 C 253.535 144.792,251.690 144.434,249.600 144.000 C 239.418 141.885,234.722 143.191,224.312 151.036 C 215.401 157.751,212.914 158.512,207.446 156.193 C 205.466 155.353,211.101 163.267,214.321 165.848 C 230.101 178.497,253.846 170.230,257.779 150.717 C 262.205 128.754,241.580 112.698,219.718 121.087 C 219.300 121.247,219.427 120.724,220.160 119.279 C 229.986 99.889,214.410 77.715,192.877 80.438 " stroke="none" fill="#04843c" fill-rule="evenodd"></path><path id="path2" d="M184.000 39.456 C 175.000 40.116,161.872 42.355,152.400 44.844 C 147.543 46.121,134.966 50.167,134.075 50.741 C 133.596 51.049,136.251 56.233,138.815 59.995 L 139.430 60.898 142.010 59.595 C 144.278 58.450,149.282 56.400,149.809 56.400 C 149.914 56.400,150.000 56.676,150.000 57.013 C 150.000 58.087,151.109 58.106,154.092 57.081 C 156.502 56.253,163.028 54.541,166.672 53.781 C 167.188 53.673,167.597 53.242,167.672 52.726 C 167.820 51.719,168.549 51.466,173.800 50.598 C 179.094 49.723,181.452 49.789,181.721 50.820 C 181.923 51.593,182.110 51.621,185.068 51.320 C 188.954 50.923,205.247 50.899,208.900 51.285 C 211.413 51.550,211.600 51.516,211.600 50.785 C 211.600 49.862,213.173 49.764,217.800 50.401 C 224.656 51.344,225.600 51.615,225.600 52.638 C 225.600 53.295,225.876 53.645,226.500 53.782 C 230.982 54.765,234.834 55.745,238.200 56.761 C 241.933 57.887,242.235 57.922,242.719 57.284 C 243.438 56.336,244.357 56.561,249.303 58.896 C 251.669 60.014,253.664 60.854,253.736 60.764 C 254.908 59.290,259.218 51.058,258.955 50.796 C 258.272 50.116,244.936 45.951,237.800 44.188 C 230.585 42.406,224.993 41.359,216.400 40.182 C 211.935 39.570,189.342 39.064,184.000 39.456 M177.800 54.415 C 171.214 55.135,169.508 55.604,169.706 56.640 C 169.863 57.463,169.700 57.615,168.443 57.816 C 163.554 58.600,160.108 59.368,156.460 60.488 C 152.590 61.676,152.295 61.713,151.927 61.055 C 151.623 60.513,151.242 60.412,150.266 60.615 C 149.257 60.824,142.142 63.474,141.688 63.809 C 141.447 63.986,147.729 73.200,148.090 73.200 C 148.300 73.200,151.561 72.580,155.336 71.823 C 185.113 65.849,213.598 65.852,240.311 71.832 C 243.672 72.584,246.593 73.200,246.802 73.200 C 247.159 73.200,252.598 65.391,253.036 64.250 C 253.249 63.695,250.301 62.211,246.146 60.781 C 243.430 59.847,243.200 59.831,243.200 60.576 C 243.200 61.599,242.617 61.576,238.574 60.392 C 236.388 59.752,232.569 58.830,230.087 58.344 C 225.981 57.541,225.584 57.386,225.687 56.630 C 225.904 55.036,213.349 53.546,212.938 55.117 C 212.766 55.772,212.449 55.803,209.275 55.482 C 207.364 55.288,200.535 55.208,194.100 55.304 C 182.926 55.470,182.400 55.445,182.400 54.739 C 182.400 53.925,182.327 53.920,177.800 54.415 M178.000 73.045 C 161.899 74.387,143.951 77.597,130.800 81.488 L 127.000 82.613 126.896 156.406 C 126.783 236.925,126.694 233.520,129.051 238.902 C 136.737 256.455,162.999 272.932,191.394 278.016 C 195.825 278.809,196.171 278.817,199.511 278.197 C 231.030 272.350,261.838 250.967,265.169 232.627 C 265.467 230.986,265.600 207.453,265.600 156.422 L 265.600 82.591 260.100 81.079 C 233.754 73.835,203.752 70.900,178.000 73.045 M202.956 80.789 C 219.209 84.946,228.343 103.601,221.095 117.835 C 220.768 118.476,220.378 119.399,220.228 119.886 L 219.955 120.772 222.136 120.022 C 243.003 112.843,263.039 130.669,257.855 151.800 C 252.660 172.970,224.924 179.304,210.762 162.555 C 209.187 160.693,206.049 155.600,206.477 155.600 C 206.544 155.600,207.590 155.978,208.800 156.441 C 213.131 158.094,215.854 157.087,224.376 150.678 C 234.409 143.134,240.611 141.457,250.000 143.753 C 253.891 144.704,253.753 144.777,253.455 141.926 C 252.669 134.404,245.932 126.937,237.800 124.573 C 224.982 120.849,208.661 130.277,204.171 144.000 C 202.479 149.170,203.232 176.380,205.419 189.117 C 205.958 192.261,206.400 194.916,206.400 195.017 C 206.400 195.118,201.438 195.200,195.373 195.200 C 185.059 195.200,184.359 195.155,184.553 194.500 C 187.880 183.254,190.043 149.770,187.845 143.543 C 183.814 132.123,169.835 122.692,158.616 123.823 C 148.369 124.856,139.279 133.885,139.210 143.100 C 139.198 144.611,139.128 144.598,142.675 143.745 C 151.997 141.505,157.992 143.137,167.800 150.583 C 176.267 157.010,180.034 158.334,183.937 156.254 C 187.162 154.535,184.829 159.139,180.000 164.023 C 162.827 181.395,133.949 169.617,133.847 145.200 C 133.781 129.448,144.870 118.376,160.683 118.406 C 165.682 118.415,169.042 119.383,179.800 123.914 C 192.491 129.257,199.142 129.586,207.371 125.277 C 216.862 120.307,221.133 107.655,216.427 98.449 L 215.531 96.698 213.666 98.474 C 206.326 105.463,198.799 107.355,186.800 105.225 C 177.108 103.504,173.628 104.271,170.750 108.761 C 167.821 113.332,168.976 100.292,172.056 94.018 C 177.077 83.789,191.143 77.767,202.956 80.789 M241.111 198.196 C 248.011 200.375,252.799 205.034,254.603 211.322 C 260.412 231.565,232.096 247.976,224.549 228.741 C 223.226 225.370,223.475 224.912,225.183 227.574 C 231.831 237.933,245.865 234.539,245.748 222.600 C 245.700 217.736,243.184 214.495,238.181 212.853 C 231.850 210.774,228.458 212.881,220.876 223.600 C 210.830 237.804,206.158 241.200,196.664 241.200 C 186.858 241.200,177.647 234.541,168.614 220.921 C 164.333 214.468,161.991 212.804,157.200 212.813 C 147.884 212.830,143.117 225.130,150.131 231.053 C 155.932 235.951,163.343 234.359,167.463 227.329 C 169.374 224.067,168.971 226.845,166.946 230.885 C 159.475 245.796,136.235 233.188,137.298 214.800 C 138.048 201.822,153.638 193.399,165.800 199.400 C 169.692 201.321,175.126 206.467,177.203 210.200 C 181.991 218.803,188.516 226.048,192.800 227.517 C 200.925 230.303,206.809 226.002,206.796 217.285 C 206.781 206.633,194.675 201.730,181.400 207.000 C 179.954 207.574,183.690 204.014,186.031 202.586 C 194.905 197.176,208.513 200.743,213.870 209.883 L 214.922 211.679 215.907 209.340 C 220.036 199.532,230.581 194.869,241.111 198.196 M224.662 242.596 C 234.780 245.601,235.238 258.174,225.400 262.837 C 215.522 267.519,207.935 266.225,189.124 256.647 C 174.557 249.230,171.091 248.654,169.412 253.370 C 167.741 258.064,176.097 261.334,185.000 259.471 C 188.438 258.752,188.528 258.825,186.621 260.779 C 183.280 264.200,177.060 266.090,171.929 265.243 C 160.044 263.280,155.603 250.128,164.971 244.638 C 172.327 240.327,181.199 242.318,198.600 252.187 C 209.068 258.123,219.157 258.786,222.099 253.731 C 225.155 248.479,214.677 245.876,204.500 249.360 C 201.099 250.524,200.925 250.230,203.500 247.681 C 208.072 243.154,218.282 240.701,224.662 242.596 " stroke="none" fill="#8b9393" fill-rule="evenodd"></path><path id="path3" d="M176.000 230.525 C 176.000 230.594,176.585 231.179,177.300 231.825 L 178.600 233.000 177.425 231.700 C 176.330 230.488,176.000 230.216,176.000 230.525 " stroke="none" fill="#526585" fill-rule="evenodd"></path><path id="path4" d="M233.491 197.489 C 234.201 197.577,235.461 197.579,236.291 197.492 C 237.121 197.405,236.540 197.333,235.000 197.331 C 233.460 197.329,232.781 197.400,233.491 197.489 M193.300 200.276 C 193.685 200.376,194.315 200.376,194.700 200.276 C 195.085 200.175,194.770 200.093,194.000 200.093 C 193.230 200.093,192.915 200.175,193.300 200.276 M220.181 202.900 L 218.600 204.600 220.300 203.019 C 221.881 201.548,222.184 201.200,221.881 201.200 C 221.816 201.200,221.051 201.965,220.181 202.900 M142.378 203.500 L 141.000 205.000 142.500 203.622 C 143.325 202.863,144.000 202.188,144.000 202.122 C 144.000 201.816,143.662 202.104,142.378 203.500 M182.175 205.700 L 181.000 207.000 182.300 205.825 C 183.015 205.179,183.600 204.594,183.600 204.525 C 183.600 204.216,183.270 204.488,182.175 205.700 M190.291 204.689 C 191.001 204.777,192.261 204.779,193.091 204.692 C 193.921 204.605,193.340 204.533,191.800 204.531 C 190.260 204.529,189.581 204.600,190.291 204.689 M210.800 206.600 C 211.546 207.370,212.247 208.000,212.357 208.000 C 212.467 208.000,211.946 207.370,211.200 206.600 C 210.454 205.830,209.753 205.200,209.643 205.200 C 209.533 205.200,210.054 205.830,210.800 206.600 M202.400 207.725 C 202.400 207.794,202.985 208.379,203.700 209.025 L 205.000 210.200 203.825 208.900 C 202.730 207.688,202.400 207.416,202.400 207.725 M137.293 217.600 C 137.293 218.370,137.375 218.685,137.476 218.300 C 137.576 217.915,137.576 217.285,137.476 216.900 C 137.375 216.515,137.293 216.830,137.293 217.600 M184.000 220.925 C 184.000 220.994,184.585 221.579,185.300 222.225 L 186.600 223.400 185.425 222.100 C 184.330 220.888,184.000 220.616,184.000 220.925 M146.520 223.200 C 146.520 224.410,146.595 224.905,146.687 224.300 C 146.778 223.695,146.778 222.705,146.687 222.100 C 146.595 221.495,146.520 221.990,146.520 223.200 M227.200 230.600 C 227.946 231.370,228.647 232.000,228.757 232.000 C 228.867 232.000,228.346 231.370,227.600 230.600 C 226.854 229.830,226.153 229.200,226.043 229.200 C 225.933 229.200,226.454 229.830,227.200 230.600 M148.400 229.725 C 148.400 229.794,148.985 230.379,149.700 231.025 L 151.000 232.200 149.825 230.900 C 148.730 229.688,148.400 229.416,148.400 229.725 M156.905 234.287 C 157.514 234.379,158.414 234.377,158.905 234.282 C 159.397 234.187,158.900 234.111,157.800 234.114 C 156.700 234.117,156.297 234.195,156.905 234.287 M195.907 241.090 C 196.626 241.179,197.706 241.177,198.307 241.086 C 198.908 240.995,198.320 240.922,197.000 240.924 C 195.680 240.926,195.188 241.001,195.907 241.090 M217.911 242.293 C 218.851 242.378,220.291 242.377,221.111 242.291 C 221.930 242.205,221.160 242.136,219.400 242.137 C 217.640 242.139,216.970 242.209,217.911 242.293 M160.109 253.200 C 160.109 254.190,160.187 254.595,160.282 254.100 C 160.378 253.605,160.378 252.795,160.282 252.300 C 160.187 251.805,160.109 252.210,160.109 253.200 M211.705 257.487 C 212.314 257.579,213.214 257.577,213.705 257.482 C 214.197 257.387,213.700 257.311,212.600 257.314 C 211.500 257.317,211.097 257.395,211.705 257.487 M212.500 265.091 C 213.325 265.178,214.675 265.178,215.500 265.091 C 216.325 265.005,215.650 264.934,214.000 264.934 C 212.350 264.934,211.675 265.005,212.500 265.091 " stroke="none" fill="#444c8c" fill-rule="evenodd"></path><path id="path5" d="M197.505 80.283 C 198.002 80.379,198.722 80.375,199.105 80.275 C 199.487 80.175,199.080 80.096,198.200 80.101 C 197.320 80.105,197.007 80.187,197.505 80.283 M176.378 88.300 L 175.000 89.800 176.500 88.422 C 177.325 87.663,178.000 86.988,178.000 86.922 C 178.000 86.616,177.662 86.904,176.378 88.300 M218.514 106.600 C 218.517 107.700,218.595 108.103,218.687 107.495 C 218.779 106.886,218.777 105.986,218.682 105.495 C 218.587 105.003,218.511 105.500,218.514 106.600 M159.300 118.691 C 160.125 118.778,161.475 118.778,162.300 118.691 C 163.125 118.605,162.450 118.534,160.800 118.534 C 159.150 118.534,158.475 118.605,159.300 118.691 M230.291 118.689 C 231.001 118.777,232.261 118.779,233.091 118.692 C 233.921 118.605,233.340 118.533,231.800 118.531 C 230.260 118.529,229.581 118.600,230.291 118.689 M180.800 132.925 C 180.800 132.994,181.385 133.579,182.100 134.225 L 183.400 135.400 182.225 134.100 C 181.130 132.888,180.800 132.616,180.800 132.925 M138.901 143.400 C 138.905 144.280,138.987 144.593,139.083 144.095 C 139.179 143.598,139.175 142.878,139.075 142.495 C 138.975 142.113,138.896 142.520,138.901 143.400 M253.701 143.400 C 253.705 144.280,253.787 144.593,253.883 144.095 C 253.979 143.598,253.975 142.878,253.875 142.495 C 253.775 142.113,253.696 142.520,253.701 143.400 M203.314 148.200 C 203.317 149.300,203.395 149.703,203.487 149.095 C 203.579 148.486,203.577 147.586,203.482 147.095 C 203.387 146.603,203.311 147.100,203.314 148.200 M188.920 149.200 C 188.920 150.410,188.995 150.905,189.087 150.300 C 189.178 149.695,189.178 148.705,189.087 148.100 C 188.995 147.495,188.920 147.990,188.920 149.200 M188.928 158.800 C 188.928 160.230,189.001 160.815,189.089 160.100 C 189.178 159.385,189.178 158.215,189.089 157.500 C 189.001 156.785,188.928 157.370,188.928 158.800 M202.954 161.600 C 202.954 164.350,203.018 165.475,203.096 164.100 C 203.174 162.725,203.174 160.475,203.096 159.100 C 203.018 157.725,202.954 158.850,202.954 161.600 M188.514 166.600 C 188.517 167.700,188.595 168.103,188.687 167.495 C 188.779 166.886,188.777 165.986,188.682 165.495 C 188.587 165.003,188.511 165.500,188.514 166.600 M203.309 174.000 C 203.309 174.990,203.387 175.395,203.482 174.900 C 203.578 174.405,203.578 173.595,203.482 173.100 C 203.387 172.605,203.309 173.010,203.309 174.000 M203.693 178.400 C 203.693 179.170,203.775 179.485,203.876 179.100 C 203.976 178.715,203.976 178.085,203.876 177.700 C 203.775 177.315,203.693 177.630,203.693 178.400 M206.000 194.394 C 206.000 194.639,201.905 194.830,195.100 194.900 L 184.200 195.013 195.300 195.107 C 204.941 195.188,206.400 195.121,206.400 194.600 C 206.400 194.270,206.310 194.000,206.200 194.000 C 206.090 194.000,206.000 194.177,206.000 194.394 " stroke="none" fill="#448c64" fill-rule="evenodd"></path><path id="path6" d="M178.500 104.276 C 178.885 104.376,179.515 104.376,179.900 104.276 C 180.285 104.175,179.970 104.093,179.200 104.093 C 178.430 104.093,178.115 104.175,178.500 104.276 M223.693 106.400 C 223.693 107.170,223.775 107.485,223.876 107.100 C 223.976 106.715,223.976 106.085,223.876 105.700 C 223.775 105.315,223.693 105.630,223.693 106.400 M169.301 108.200 C 169.305 109.080,169.387 109.393,169.483 108.895 C 169.579 108.398,169.575 107.678,169.475 107.295 C 169.375 106.913,169.296 107.320,169.301 108.200 M133.734 145.200 C 133.734 146.850,133.805 147.525,133.891 146.700 C 133.978 145.875,133.978 144.525,133.891 143.700 C 133.805 142.875,133.734 143.550,133.734 145.200 M148.500 143.087 C 149.105 143.178,150.095 143.178,150.700 143.087 C 151.305 142.995,150.810 142.920,149.600 142.920 C 148.390 142.920,147.895 142.995,148.500 143.087 M241.700 143.087 C 242.305 143.178,243.295 143.178,243.900 143.087 C 244.505 142.995,244.010 142.920,242.800 142.920 C 241.590 142.920,241.095 142.995,241.700 143.087 M258.501 145.800 C 258.505 146.680,258.587 146.993,258.683 146.495 C 258.779 145.998,258.775 145.278,258.675 144.895 C 258.575 144.513,258.496 144.920,258.501 145.800 M203.309 151.600 C 203.309 152.590,203.387 152.995,203.482 152.500 C 203.578 152.005,203.578 151.195,203.482 150.700 C 203.387 150.205,203.309 150.610,203.309 151.600 M188.931 153.800 C 188.933 155.340,189.005 155.921,189.092 155.091 C 189.179 154.261,189.177 153.001,189.089 152.291 C 189.000 151.581,188.929 152.260,188.931 153.800 M203.301 171.000 C 203.305 171.880,203.387 172.193,203.483 171.695 C 203.579 171.198,203.575 170.478,203.475 170.095 C 203.375 169.713,203.296 170.120,203.301 171.000 M160.500 172.276 C 160.885 172.376,161.515 172.376,161.900 172.276 C 162.285 172.175,161.970 172.093,161.200 172.093 C 160.430 172.093,160.115 172.175,160.500 172.276 M230.500 172.276 C 230.885 172.376,231.515 172.376,231.900 172.276 C 232.285 172.175,231.970 172.093,231.200 172.093 C 230.430 172.093,230.115 172.175,230.500 172.276 M248.778 231.500 L 247.400 233.000 248.900 231.622 C 249.725 230.863,250.400 230.188,250.400 230.122 C 250.400 229.816,250.062 230.104,248.778 231.500 " stroke="none" fill="#6a8283" fill-rule="evenodd"></path><path id="path7" d="" stroke="none" fill="#788c84" fill-rule="evenodd"></path><path id="path8" d="M177.700 260.287 C 178.305 260.378,179.295 260.378,179.900 260.287 C 180.505 260.195,180.010 260.120,178.800 260.120 C 177.590 260.120,177.095 260.195,177.700 260.287 M173.705 265.487 C 174.314 265.579,175.214 265.577,175.705 265.482 C 176.197 265.387,175.700 265.311,174.600 265.314 C 173.500 265.317,173.097 265.395,173.705 265.487 " stroke="none" fill="#646c8c" fill-rule="evenodd"></path></g></svg>